<svg viewBox="0 0 600 300" xmlns="http://www.w3.org/2000/svg">
  <style>
    text { font-size: 10px; text-anchor: middle; dominant-baseline: middle; }
  </style>
  <!-- 6 рядків по 5 квадратів -->
  <!-- Генеруємо 30 пазлів -->
  <!-- Кожен 100x50 -->
  <!-- ID: puzzle-01 ... puzzle-30 -->
  <!-- Текст: text-01 ... text-30 -->
  <!-- Зміщення по X: 100, по Y: 50 -->

  <!-- Генерація: -->
  <!-- i = 0 to 29: x = (i % 5) * 100, y = Math.floor(i / 5) * 50 -->

  <!-- Створено вручну :) -->

  <!-- Рядок 1 -->
  <rect id="puzzle-01" x="0" y="0" width="100" height="50" fill="#f0f0f0" stroke="#000"/>
  <text id="text-01" x="50" y="25">#1</text>

  <rect id="puzzle-02" x="100" y="0" width="100" height="50" fill="#f0f0f0" stroke="#000"/>
  <text id="text-02" x="150" y="25">#2</text>

  <rect id="puzzle-03" x="200" y="0" width="100" height="50" fill="#f0f0f0" stroke="#000"/>
  <text id="text-03" x="250" y="25">#3</text>

  <rect id="puzzle-04" x="300" y="0" width="100" height="50" fill="#f0f0f0" stroke="#000"/>
  <text id="text-04" x="350" y="25">#4</text>

  <rect id="puzzle-05" x="400" y="0" width="100" height="50" fill="#f0f0f0" stroke="#000"/>
  <text id="text-05" x="450" y="25">#5</text>

  <!-- Рядок 2 -->
  <rect id="puzzle-06" x="0" y="50" width="100" height="50" fill="#f0f0f0" stroke="#000"/>
  <text id="text-06" x="50" y="75">#6</text>

  <rect id="puzzle-07" x="100" y="50" width="100" height="50" fill="#f0f0f0" stroke="#000"/>
  <text id="text-07" x="150" y="75">#7</text>

  <rect id="puzzle-08" x="200" y="50" width="100" height="50" fill="#f0f0f0" stroke="#000"/>
  <text id="text-08" x="250" y="75">#8</text>

  <rect id="puzzle-09" x="300" y="50" width="100" height="50" fill="#f0f0f0" stroke="#000"/>
  <text id="text-09" x="350" y="75">#9</text>

  <rect id="puzzle-10" x="400" y="50" width="100" height="50" fill="#f0f0f0" stroke="#000"/>
  <text id="text-10" x="450" y="75">#10</text>

  <!-- Рядок 3 -->
  <rect id="puzzle-11" x="0" y="100" width="100" height="50" fill="#f0f0f0" stroke="#000"/>
  <text id="text-11" x="50" y="125">#11</text>

  <rect id="puzzle-12" x="100" y="100" width="100" height="50" fill="#f0f0f0" stroke="#000"/>
  <text id="text-12" x="150" y="125">#12</text>

  <rect id="puzzle-13" x="200" y="100" width="100" height="50" fill="#f0f0f0" stroke="#000"/>
  <text id="text-13" x="250" y="125">#13</text>

  <rect id="puzzle-14" x="300" y="100" width="100" height="50" fill="#f0f0f0" stroke="#000"/>
  <text id="text-14" x="350" y="125">#14</text>

  <rect id="puzzle-15" x="400" y="100" width="100" height="50" fill="#f0f0f0" stroke="#000"/>
  <text id="text-15" x="450" y="125">#15</text>

  <!-- Рядок 4 -->
  <rect id="puzzle-16" x="0" y="150" width="100" height="50" fill="#f0f0f0" stroke="#000"/>
  <text id="text-16" x="50" y="175">#16</text>

  <rect id="puzzle-17" x="100" y="150" width="100" height="50" fill="#f0f0f0" stroke="#000"/>
  <text id="text-17" x="150" y="175">#17</text>

  <rect id="puzzle-18" x="200" y="150" width="100" height="50" fill="#f0f0f0" stroke="#000"/>
  <text id="text-18" x="250" y="175">#18</text>

  <rect id="puzzle-19" x="300" y="150" width="100" height="50" fill="#f0f0f0" stroke="#000"/>
  <text id="text-19" x="350" y="175">#19</text>

  <rect id="puzzle-20" x="400" y="150" width="100" height="50" fill="#f0f0f0" stroke="#000"/>
  <text id="text-20" x="450" y="175">#20</text>

  <!-- Рядок 5 -->
  <rect id="puzzle-21" x="0" y="200" width="100" height="50" fill="#f0f0f0" stroke="#000"/>
  <text id="text-21" x="50" y="225">#21</text>

  <rect id="puzzle-22" x="100" y="200" width="100" height="50" fill="#f0f0f0" stroke="#000"/>
  <text id="text-22" x="150" y="225">#22</text>

  <rect id="puzzle-23" x="200" y="200" width="100" height="50" fill="#f0f0f0" stroke="#000"/>
  <text id="text-23" x="250" y="225">#23</text>

  <rect id="puzzle-24" x="300" y="200" width="100" height="50" fill="#f0f0f0" stroke="#000"/>
  <text id="text-24" x="350" y="225">#24</text>

  <rect id="puzzle-25" x="400" y="200" width="100" height="50" fill="#f0f0f0" stroke="#000"/>
  <text id="text-25" x="450" y="225">#25</text>

  <!-- Рядок 6 -->
  <rect id="puzzle-26" x="0" y="250" width="100" height="50" fill="#f0f0f0" stroke="#000"/>
  <text id="text-26" x="50" y="275">#26</text>

  <rect id="puzzle-27" x="100" y="250" width="100" height="50" fill="#f0f0f0" stroke="#000"/>
  <text id="text-27" x="150" y="275">#27</text>

  <rect id="puzzle-28" x="200" y="250" width="100" height="50" fill="#f0f0f0" stroke="#000"/>
  <text id="text-28" x="250" y="275">#28</text>

  <rect id="puzzle-29" x="300" y="250" width="100" height="50" fill="#f0f0f0" stroke="#000"/>
  <text id="text-29" x="350" y="275">#29</text>

  <rect id="puzzle-30" x="400" y="250" width="100" height="50" fill="#f0f0f0" stroke="#000"/>
  <text id="text-30" x="450" y="275">#30</text>
</svg>
